<svg width="359" height="142" viewBox="0 0 359 142" fill="none" xmlns="http://www.w3.org/2000/svg">
<mask id="mask0_114_2042" style="mask-type:alpha" maskUnits="userSpaceOnUse" x="0" y="0" width="359" height="142">
<path d="M231.469 28.0215C231.469 33.0207 231.469 35.521 233.021 37.0742C234.575 38.6274 237.075 38.6279 242.074 38.6279H345.743C351.992 38.6279 355.117 38.6279 357.059 40.5694C359 42.5108 359 45.6355 359 51.8849V128.51C359 134.759 359 137.884 357.059 139.825C355.117 141.767 351.992 141.767 345.743 141.767H13.257C7.0076 141.767 3.88289 141.767 1.94145 139.825C0 137.884 0 134.759 0 128.51V14.2346C0 7.98514 0 4.86043 1.94145 2.91898C3.88289 0.977539 7.0076 0.977539 13.257 0.977539H218.212C224.461 0.977539 227.586 0.977539 229.527 2.91898C231.469 4.86043 231.469 7.98514 231.469 14.2346V28.0215Z" fill="#CAC7C7"/>
</mask>
<g mask="url(#mask0_114_2042)">
<rect x="-16.9688" y="-37.7324" width="392.739" height="209.461" fill="white"/>
</g>
</svg>
