<svg width="305" height="349" viewBox="0 0 305 349" fill="none" xmlns="http://www.w3.org/2000/svg">
<mask id="mask0_2_1226" style="mask-type:alpha" maskUnits="userSpaceOnUse" x="0" y="0" width="305" height="349">
<path d="M238.006 0.563477C269.011 0.563477 284.514 0.563642 294.348 9.94434C294.733 10.3123 295.111 10.6895 295.479 11.0752C304.859 20.9089 304.859 36.4116 304.859 67.417V230.704C304.859 246.207 304.859 253.958 300.169 258.875C299.985 259.068 299.796 259.256 299.604 259.44C294.687 264.131 286.935 264.131 271.433 264.131H231.333C225.086 264.131 220.021 269.196 220.021 275.443V315.543C220.021 331.046 220.021 338.797 215.33 343.714C215.146 343.907 214.958 344.095 214.765 344.279C209.848 348.97 202.097 348.97 186.594 348.97H67.4229C36.4174 348.97 20.9147 348.97 11.0811 339.589C10.6954 339.221 10.3181 338.845 9.9502 338.459C0.56938 328.625 0.569336 313.122 0.569336 282.117V67.417C0.569336 36.4116 0.569425 20.9089 9.9502 11.0752C10.3182 10.6895 10.6953 10.3123 11.0811 9.94434C20.9147 0.563565 36.4175 0.563477 67.4229 0.563477H238.006Z" fill="#CAC7C7"/>
</mask>
<g mask="url(#mask0_2_1226)">
<rect x="-169" y="-10" width="598.333" height="359" fill="white"/>
</g>
</svg>
