<svg width="1354" height="531" viewBox="0 0 1354 531" fill="none" xmlns="http://www.w3.org/2000/svg">
<mask id="mask0_2_1623" style="mask-type:alpha" maskUnits="userSpaceOnUse" x="0" y="0" width="1354" height="531">
<path d="M873 102C873 120.856 873 130.285 878.857 136.143C884.715 142 894.144 142 913 142H1304C1327.57 142 1339.36 142 1346.68 149.322C1354 156.645 1354 168.43 1354 192V481C1354 504.57 1354 516.355 1346.68 523.678C1339.36 531 1327.57 531 1304 531H632.792C612.688 531 602.635 531 595.658 525.128C588.68 519.257 586.963 509.352 583.528 489.543L578.853 462.583C577.191 452.999 568.874 446 559.146 446H168.682C158.809 446 150.414 453.204 148.914 462.962L144.974 488.596C141.864 508.829 140.309 518.946 133.285 524.973C126.261 531 116.025 531 95.5543 531H50C26.4298 531 14.6447 531 7.32233 523.678C0 516.355 0 504.57 0 481V50C0 26.4298 0 14.6447 7.32233 7.32233C14.6447 0 26.4298 0 50 0H823C846.57 0 858.355 0 865.678 7.32233C873 14.6447 873 26.4298 873 50V102Z" fill="#CAC7C7"/>
</mask>
<g mask="url(#mask0_2_1623)">
<rect x="-64" y="-146" width="1481.25" height="790" fill="white"/>
</g>
</svg>
